HIERARCHY
ROOT Hips
{
    OFFSET 0.000000 0.000000 0.000000
    CHANNELS 6 Xposition Yposition Zposition Zrotation Xrotation Yrotation
    JOINT Spine
    {
        OFFSET -0.000000 6.993131 0.000000
        CHANNELS 3 Zrotation Xrotation Yrotation
        JOINT Spine1
        {
            OFFSET -0.000000 20.649729 0.000000
            CHANNELS 3 Zrotation Xrotation Yrotation
            JOINT Neck
            {
                OFFSET -0.000000 20.564924 1.869539
                CHANNELS 3 Zrotation Xrotation Yrotation
                JOINT Head
                {
                    OFFSET -0.000000 11.939490 -1.705642
                    CHANNELS 3 Zrotation Xrotation Yrotation
                    End Site
                    {
                        OFFSET -0.000000 21.320518 0.000000
                    }
                }
            }
            JOINT LeftShoulder
            {
                OFFSET 3.446977 19.850397 -0.038759
                CHANNELS 3 Zrotation Xrotation Yrotation
                JOINT LeftArm
                {
                    OFFSET 7.083611 0.000000 0.000000
                    CHANNELS 3 Zrotation Xrotation Yrotation
                    JOINT LeftForeArm
                    {
                        OFFSET 32.044487 0.000000 0.000000
                        CHANNELS 3 Zrotation Xrotation Yrotation
                        JOINT LeftHand
                        {
                            OFFSET 22.068741 0.000000 0.000000
                            CHANNELS 3 Zrotation Xrotation Yrotation
                            End Site
                            {
                                OFFSET 12.792312 0.000000 0.000000
                            }
                        }
                    }
                }
            }
            JOINT RightShoulder
            {
                OFFSET -3.365844 19.850397 -0.038759
                CHANNELS 3 Zrotation Xrotation Yrotation
                JOINT RightArm
                {
                    OFFSET -7.083611 0.000000 0.000000
                    CHANNELS 3 Zrotation Xrotation Yrotation
                    JOINT RightForeArm
                    {
                        OFFSET -32.044487 0.000000 0.000000
                        CHANNELS 3 Zrotation Xrotation Yrotation
                        JOINT RightHand
                        {
                            OFFSET -22.068741 0.000000 0.000000
                            CHANNELS 3 Zrotation Xrotation Yrotation
                            End Site
                            {
                                OFFSET -12.792312 0.000000 0.000000
                            }
                        }
                    }
                }
            }
        }
    }
    JOINT LeftUpLeg
    {
        OFFSET 8.528208 0.000000 0.000000
        CHANNELS 3 Zrotation Xrotation Yrotation
        JOINT LeftLeg
        {
            OFFSET -0.000000 -31.874865 0.000000
            CHANNELS 3 Zrotation Xrotation Yrotation
            JOINT LeftFoot
            {
                OFFSET -0.000000 -38.221939 0.000000
                CHANNELS 3 Zrotation Xrotation Yrotation
                JOINT LeftToeBase
                {
                    OFFSET -0.000000 -5.543335 12.792312
                    CHANNELS 3 Zrotation Xrotation Yrotation
                    End Site
                    {
                        OFFSET -0.000000 0.000000 3.411283
                    }
                }
            }
        }
    }
    JOINT RightUpLeg
    {
        OFFSET -8.528208 0.000000 0.000000
        CHANNELS 3 Zrotation Xrotation Yrotation
        JOINT RightLeg
        {
            OFFSET -0.000000 -31.874865 0.000000
            CHANNELS 3 Zrotation Xrotation Yrotation
            JOINT RightFoot
            {
                OFFSET -0.000000 -38.221939 0.000000
                CHANNELS 3 Zrotation Xrotation Yrotation
                JOINT RightToeBase
                {
                    OFFSET -0.000000 -5.543335 12.792312
                    CHANNELS 3 Zrotation Xrotation Yrotation
                    End Site
                    {
                        OFFSET -0.000000 0.000000 3.411283
                    }
                }
            }
        }
    }
}
MOTION
Frames:    5
Frame Time:    0.008333
33.325325    75.370094    22.502747    5.158990    0.763087    100.375023    -9.245645    -2.534564    3.262267    3.845769    7.890480    3.201916    8.110777    14.159248    2.491940    -1.488133    -2.673855    2.186310    20.396345    -3.177006    -6.544391    -22.646511    -0.670933    -20.752903    2.862345    -2.766098    -6.118971    -10.369868    -2.378224    -2.592203    -9.903614    -1.698458    -8.552819    12.137899    5.760510    2.369424    -2.035664    1.040236    3.697249    20.226357    0.990140    -0.649515    -5.965071    -2.838496    -1.872913    3.973027    18.534204    -3.064067    -1.537497    -10.811597    -4.118626    0.000000    0.000000    0.000000    -12.188551    -6.998974    -0.584718    9.241241    32.480064    -11.184447    11.943512    -16.978363    1.766063    0.000000    0.000000    0.000000    
33.440739    75.368668    22.502329    5.122177    0.758137    100.382866    -9.054034    -2.819583    3.066599    3.606012    8.233865    3.030243    7.682657    13.976679    2.747196    -1.221406    -2.331677    2.495128    20.389780    -3.134854    -6.193249    -22.519430    -0.584285    -20.433764    2.732780    -3.014100    -6.390817    -10.131109    -2.672077    -2.141709    -10.123851    -1.869264    -8.147384    12.356097    5.450053    2.387608    -2.040529    1.215735    3.535633    20.172083    1.182973    -0.538255    -5.942766    -2.767610    -1.923817    3.944638    18.497967    -2.969477    -1.526276    -10.856868    -4.177211    0.000000    0.000000    0.000000    -12.071591    -6.536586    -0.069292    9.438269    31.536528    -11.377317    11.974721    -16.654936    1.814478    0.000000    0.000000    0.000000    
33.545216    75.373886    22.502693    5.045783    0.756749    100.353851    -9.034088    -2.969647    3.079063    3.572669    8.173931    3.058383    7.591010    14.240493    2.746752    -1.260556    -2.439891    2.507869    20.322224    -2.980245    -6.029749    -22.514048    -0.740568    -20.580967    2.829869    -2.776521    -6.213593    -10.174935    -2.414993    -2.339256    -10.179295    -1.873123    -8.075955    12.354612    5.465240    2.334608    -1.935280    1.189472    3.520179    19.729679    1.104629    -0.830173    -5.934436    -2.758518    -1.858690    3.957281    18.490318    -3.040981    -1.544043    -10.865061    -4.155908    0.000000    0.000000    0.000000    -11.973330    -6.216466    -0.004455    9.329828    30.843052    -11.096795    11.971751    -16.090567    1.915859    0.000000    0.000000    0.000000    
33.649624    75.374702    22.500971    4.989223    0.780394    100.346146    -8.996163    -3.101671    3.067146    3.475456    8.139585    3.063855    7.453891    14.399049    2.774120    -1.194669    -2.350482    2.561735    20.274740    -2.960552    -5.976540    -22.480900    -0.782601    -20.483099    2.698157    -2.924908    -6.200452    -10.081154    -2.585969    -2.189699    -10.223256    -1.852020    -7.979172    12.373094    5.422346    2.303768    -1.889844    1.218446    3.495409    19.509909    1.115849    -0.932540    -5.954844    -2.725417    -1.910185    3.957708    18.457968    -3.142424    -1.556887    -10.842749    -4.071090    0.000000    0.000000    0.000000    -11.940501    -5.812667    0.060005    9.377526    30.107655    -10.785404    12.246174    -15.493449    1.830639    0.000000    0.000000    0.000000    
33.778294    75.365456    22.517950    4.968694    0.765537    100.321579    -8.969760    -3.300459    3.063642    3.467334    8.243669    3.072636    7.290623    14.539336    2.775598    -1.132011    -2.365165    2.585824    20.217041    -2.978042    -5.917336    -22.481693    -0.888836    -20.387627    2.730467    -2.712932    -6.097355    -10.014769    -2.349089    -2.496507    -10.257113    -1.879995    -7.903494    12.350890    5.414222    2.273164    -1.946515    1.246385    3.496362    19.876232    1.191833    -0.650644    -5.882928    -2.629299    -1.894232    3.905014    18.427397    -3.162055    -1.530242    -10.973188    -4.038045    0.000000    0.000000    0.000000    -11.825016    -5.334600    0.128807    9.401745    29.330254    -10.501775    11.430327    -14.698080    1.426178    0.000000    0.000000    0.000000    
